<svg width="280" height="200" viewBox="0 0 280 200" fill="none" xmlns="http://www.w3.org/2000/svg">
  <!-- Background -->
  <rect width="280" height="200" rx="12" fill="#FF9500" />
  
  <!-- Dice -->
  <rect x="30" y="70" width="50" height="50" rx="8" fill="white" stroke="#333" stroke-width="2"/>
  <circle cx="55" cy="95" r="6" fill="#333"/>
  
  <rect x="90" y="40" width="50" height="50" rx="8" fill="white" stroke="#333" stroke-width="2"/>
  <circle cx="105" cy="55" r="6" fill="#333"/>
  <circle cx="125" cy="75" r="6" fill="#333"/>
  
  <rect x="150" y="80" width="50" height="50" rx="8" fill="white" stroke="#333" stroke-width="2"/>
  <circle cx="165" cy="95" r="6" fill="#333"/>
  <circle cx="185" cy="95" r="6" fill="#333"/>
  <circle cx="175" cy="110" r="6" fill="#333"/>
  
  <rect x="70" y="110" width="50" height="50" rx="8" fill="white" stroke="#333" stroke-width="2"/>
  <circle cx="85" cy="125" r="6" fill="#333"/>
  <circle cx="105" cy="125" r="6" fill="#333"/>
  <circle cx="85" cy="145" r="6" fill="#333"/>
  <circle cx="105" cy="145" r="6" fill="#333"/>
  
  <rect x="200" y="40" width="50" height="50" rx="8" fill="white" stroke="#333" stroke-width="2"/>
  <circle cx="215" cy="55" r="6" fill="#333"/>
  <circle cx="235" cy="55" r="6" fill="#333"/>
  <circle cx="225" cy="65" r="6" fill="#333"/>
  <circle cx="215" cy="75" r="6" fill="#333"/>
  <circle cx="235" cy="75" r="6" fill="#333"/>
  
  <rect x="190" y="120" width="50" height="50" rx="8" fill="white" stroke="#333" stroke-width="2"/>
  <circle cx="205" cy="135" r="6" fill="#333"/>
  <circle cx="225" cy="135" r="6" fill="#333"/>
  <circle cx="205" cy="155" r="6" fill="#333"/>
  <circle cx="225" cy="155" r="6" fill="#333"/>
  <circle cx="215" cy="145" r="6" fill="#333"/>
  <circle cx="235" cy="145" r="6" fill="#333"/>
  
  <!-- Text -->
  <text x="140" y="30" font-family="Arial, sans-serif" font-size="20" font-weight="bold" fill="white" text-anchor="middle">MAXI YATZY</text>
</svg> 