<svg width="280" height="200" viewBox="0 0 280 200" fill="none" xmlns="http://www.w3.org/2000/svg">
  <!-- Background -->
  <rect width="280" height="200" rx="16" fill="#FF9500" />
  <rect x="15" y="15" width="250" height="170" rx="12" fill="#FF9500" stroke="#FFFFFF" stroke-width="2" stroke-opacity="0.3" />
  
  <!-- Dice with 3D effect -->
  <!-- Die 1 -->
  <g transform="translate(35, 55)">
    <rect x="0" y="0" width="60" height="60" rx="10" fill="#FFFFFF" filter="drop-shadow(2px 4px 6px rgba(0,0,0,0.3))" />
    <rect x="0" y="0" width="60" height="60" rx="10" fill="url(#dice-gradient)" fill-opacity="0.1" />
    <!-- Single dot -->
    <circle cx="30" cy="30" r="8" fill="#333333" />
  </g>
  
  <!-- Die 2 -->
  <g transform="translate(105, 35)">
    <rect x="0" y="0" width="60" height="60" rx="10" fill="#FFFFFF" filter="drop-shadow(2px 4px 6px rgba(0,0,0,0.3))" />
    <rect x="0" y="0" width="60" height="60" rx="10" fill="url(#dice-gradient)" fill-opacity="0.1" />
    <!-- Two dots -->
    <circle cx="15" cy="15" r="8" fill="#333333" />
    <circle cx="45" cy="45" r="8" fill="#333333" />
  </g>
  
  <!-- Die 3 -->
  <g transform="translate(175, 75)">
    <rect x="0" y="0" width="60" height="60" rx="10" fill="#FFFFFF" filter="drop-shadow(2px 4px 6px rgba(0,0,0,0.3))" />
    <rect x="0" y="0" width="60" height="60" rx="10" fill="url(#dice-gradient)" fill-opacity="0.1" />
    <!-- Three dots -->
    <circle cx="15" cy="15" r="8" fill="#333333" />
    <circle cx="30" cy="30" r="8" fill="#333333" />
    <circle cx="45" cy="45" r="8" fill="#333333" />
  </g>
  
  <!-- Die 4 -->
  <g transform="translate(65, 110)">
    <rect x="0" y="0" width="60" height="60" rx="10" fill="#FFFFFF" filter="drop-shadow(2px 4px 6px rgba(0,0,0,0.3))" />
    <rect x="0" y="0" width="60" height="60" rx="10" fill="url(#dice-gradient)" fill-opacity="0.1" />
    <!-- Four dots -->
    <circle cx="15" cy="15" r="8" fill="#333333" />
    <circle cx="15" cy="45" r="8" fill="#333333" />
    <circle cx="45" cy="15" r="8" fill="#333333" />
    <circle cx="45" cy="45" r="8" fill="#333333" />
  </g>
  
  <!-- Die 5 -->
  <g transform="translate(145, 25)">
    <rect x="0" y="0" width="60" height="60" rx="10" fill="#FFFFFF" filter="drop-shadow(2px 4px 6px rgba(0,0,0,0.3))" />
    <rect x="0" y="0" width="60" height="60" rx="10" fill="url(#dice-gradient)" fill-opacity="0.1" />
    <!-- Five dots -->
    <circle cx="15" cy="15" r="8" fill="#333333" />
    <circle cx="15" cy="45" r="8" fill="#333333" />
    <circle cx="30" cy="30" r="8" fill="#333333" />
    <circle cx="45" cy="15" r="8" fill="#333333" />
    <circle cx="45" cy="45" r="8" fill="#333333" />
  </g>
  
  <!-- Die 6 -->
  <g transform="translate(145, 105)">
    <rect x="0" y="0" width="60" height="60" rx="10" fill="#FFFFFF" filter="drop-shadow(2px 4px 6px rgba(0,0,0,0.3))" />
    <rect x="0" y="0" width="60" height="60" rx="10" fill="url(#dice-gradient)" fill-opacity="0.1" />
    <!-- Six dots -->
    <circle cx="15" cy="15" r="8" fill="#333333" />
    <circle cx="15" cy="30" r="8" fill="#333333" />
    <circle cx="15" cy="45" r="8" fill="#333333" />
    <circle cx="45" cy="15" r="8" fill="#333333" />
    <circle cx="45" cy="30" r="8" fill="#333333" />
    <circle cx="45" cy="45" r="8" fill="#333333" />
  </g>
  
  <!-- Gradient definitions -->
  <defs>
    <linearGradient id="dice-gradient" x1="0%" y1="0%" x2="100%" y2="100%">
      <stop offset="0%" stop-color="#FFFFFF" stop-opacity="0.7" />
      <stop offset="100%" stop-color="#CCCCCC" stop-opacity="0.1" />
    </linearGradient>
  </defs>
</svg> 